# File created by Blade
# Date/Time:  Thu Sep 25 19:36:54 2014
# Frame Rate: 120.000 fps
#------------------------------------------------------
:FULLY-SPECIFIED
:DEGREES
1096
root -3.263266 33.022380 1.620649 4.149725 -2.167151 -0.076333
Spine -8.381180 4.958826 -0.407641
Head -22.870775 4.413635 16.842842
LeftShoulder -18.879083 14.886537 30.436264
LeftArm 14.836885 -25.535352 -22.677068
LeftForeArm 13.943147 -0.000000 9.508519
LeftHand -25.882757 -0.000000 -17.323998
LeftHandThumb1 -26.253704 0.000000 33.147579
RightShoulder -25.019583 17.429931 -42.133497
RightArm -5.036524 4.125150 24.626904
RightForeArm -32.920241 -0.000000 10.737720
RightHand -10.601874 -0.000000 16.066399
RightHandThumb1 -24.326973 -0.000000 -32.862282
LeftUpLeg 0.994497 -0.219075 0.355582
LeftLeg -2.096451 -0.000000 0.000000
LeftFoot -10.325220 7.154462 -21.876226
LeftToeBase 7.216829 -0.000000 -0.000000
RightUpLeg -0.217539 -1.187533 0.839277
RightLeg 2.210794 -0.000000 -0.000000
RightFoot -9.491857 -6.513726 3.700928
RightToeBase -0.241563 -0.000000 0.000000
1097
root -3.240773 33.015542 1.604681 3.952291 -2.138170 -0.018749
Spine -8.175561 4.868670 -0.521480
Head -22.983464 3.034684 19.137875
LeftShoulder -18.778375 14.764811 30.346056
LeftArm 15.058164 -25.678035 -22.853481
LeftForeArm 13.872014 -0.000000 9.466611
LeftHand -25.715154 -0.000000 -17.529335
LeftHandThumb1 -26.253704 0.000000 33.147579
RightShoulder -25.003574 17.452985 -42.155469
RightArm -4.784970 4.216485 25.033513
RightForeArm -32.775858 -0.000000 10.752072
RightHand -10.816227 -0.000000 16.265363
RightHandThumb1 -24.326973 -0.000000 -32.862282
LeftUpLeg 1.089915 -0.407798 0.256428
LeftLeg -1.955165 -0.000000 0.000000
LeftFoot -10.487472 7.255694 -21.789911
LeftToeBase 7.265558 -0.000000 -0.000000
RightUpLeg -0.036413 -1.194927 0.775548
RightLeg 2.205085 -0.000000 -0.000000
RightFoot -9.611733 -6.730743 3.533755
RightToeBase -0.418888 -0.000000 0.000000
1098
root -3.219068 33.009873 1.591433 3.760541 -2.050728 0.022840
Spine -7.996906 4.719219 -0.571379
Head -22.981399 1.723339 21.128253
LeftShoulder -18.670642 14.658866 30.290527
LeftArm 15.289392 -25.787004 -23.104521
LeftForeArm 13.750457 -0.000000 9.503068
LeftHand -25.596538 -0.000000 -17.391667
LeftHandThumb1 -26.253704 0.000000 33.147579
RightShoulder -24.921788 17.607696 -42.196851
RightArm -4.631940 4.594842 25.237029
RightForeArm -33.069433 -0.000000 10.747693
RightHand -10.650207 -0.000000 16.548722
RightHandThumb1 -24.326973 -0.000000 -32.862282
LeftUpLeg 1.204349 -0.562937 0.181074
LeftLeg -1.864577 -0.000000 0.000000
LeftFoot -10.617217 7.282618 -21.774431
LeftToeBase 7.307038 -0.000000 -0.000000
RightUpLeg 0.161767 -1.351573 0.731155
RightLeg 2.176976 -0.000000 -0.000000
RightFoot -9.711539 -6.840083 3.426407
RightToeBase -0.405065 -0.000000 0.000000
1099
root -3.192131 33.003531 1.575920 3.616528 -1.879730 0.063098
Spine -7.890140 4.548077 -0.567204
Head -22.923782 0.389949 22.750116
LeftShoulder -18.481699 14.606158 30.233696
LeftArm 15.491696 -25.656777 -23.264281
LeftForeArm 13.431369 0.000000 9.544094
LeftHand -25.398000 -0.000000 -17.438710
LeftHandThumb1 -26.253704 0.000000 33.147579
RightShoulder -24.894411 17.722700 -42.291195
RightArm -4.375704 4.607278 25.389700
RightForeArm -32.835452 -0.000000 10.727050
RightHand -10.910967 -0.000000 16.615672
RightHandThumb1 -24.326973 -0.000000 -32.862282
LeftUpLeg 1.268907 -0.752615 0.102978
LeftLeg -1.787724 -0.000000 0.000000
LeftFoot -10.710550 7.261583 -21.733756
LeftToeBase 7.273856 -0.000000 -0.000000
RightUpLeg 0.309406 -1.680920 0.663230
RightLeg 2.156876 -0.000000 -0.000000
RightFoot -9.800821 -6.761641 3.258757
RightToeBase -0.445804 -0.000000 0.000000
1100
root -3.166515 32.999164 1.565006 3.487933 -1.663307 0.089949
Spine -7.831064 4.386156 -0.495425
Head -22.764296 -0.864719 23.866701
LeftShoulder -18.208898 14.472457 30.153983
LeftArm 15.584255 -25.115078 -23.191504
LeftForeArm 12.962693 -0.000000 9.606053
LeftHand -25.241736 -0.000000 -17.691351
LeftHandThumb1 -26.253704 0.000000 33.147579
RightShoulder -24.904169 17.634418 -42.378808
RightArm -4.046787 4.758097 25.483518
RightForeArm -32.805672 -0.000000 10.815346
RightHand -10.951309 0.000000 16.521631
RightHandThumb1 -24.326973 -0.000000 -32.862282
LeftUpLeg 1.320823 -0.875344 0.039792
LeftLeg -1.705551 -0.000000 0.000000
LeftFoot -10.769253 7.179984 -21.622237
LeftToeBase 7.185514 -0.000000 -0.000000
RightUpLeg 0.467524 -2.118184 0.609256
RightLeg 2.099506 -0.000000 -0.000000
RightFoot -9.835164 -6.648813 3.135262
RightToeBase -0.530472 -0.000000 0.000000
1101
root -3.142883 32.996264 1.554448 3.393116 -1.386123 0.098694
Spine -7.822766 4.198348 -0.365979
Head -22.553161 -2.118188 24.504422
LeftShoulder -17.969884 14.533580 29.991874
LeftArm 15.937252 -25.036260 -23.278893
LeftForeArm 12.838579 -0.000000 9.593978
LeftHand -24.984257 0.000000 -17.829541
LeftHandThumb1 -26.253704 0.000000 33.147579
RightShoulder -24.950759 17.629082 -42.531568
RightArm -3.754271 4.775394 25.491298
RightForeArm -32.794222 -0.000000 10.989761
RightHand -11.098697 -0.000000 16.454198
RightHandThumb1 -24.326973 -0.000000 -32.862282
LeftUpLeg 1.337684 -1.028283 0.008872
LeftLeg -1.629677 -0.000000 0.000000
LeftFoot -10.829783 7.045816 -21.618015
LeftToeBase 7.110108 -0.000000 -0.000000
RightUpLeg 0.591149 -2.596474 0.563377
RightLeg 2.055481 -0.000000 -0.000000
RightFoot -9.881738 -6.430928 3.198294
RightToeBase -0.564203 -0.000000 0.000000
1102
root -3.120629 32.993715 1.548291 3.318694 -1.113598 0.100797
Spine -7.873019 4.060125 -0.229755
Head -22.274318 -3.165469 24.845429
LeftShoulder -17.650828 14.291601 30.049909
LeftArm 16.152381 -24.488536 -23.347697
LeftForeArm 12.658907 -0.000000 9.608876
LeftHand -24.854148 -0.000000 -17.894624
LeftHandThumb1 -26.253704 0.000000 33.147579
RightShoulder -24.981484 17.653806 -42.632463
RightArm -3.476270 4.714242 25.319722
RightForeArm -32.988721 -0.000000 11.169545
RightHand -11.196263 -0.000000 16.197559
RightHandThumb1 -24.326973 -0.000000 -32.862282
LeftUpLeg 1.344797 -1.076348 -0.011998
LeftLeg -1.561598 -0.000000 0.000000
LeftFoot -10.848661 6.817608 -21.611219
LeftToeBase 7.094402 -0.000000 -0.000000
RightUpLeg 0.707570 -3.016590 0.522043
RightLeg 2.003005 -0.000000 -0.000000
RightFoot -9.906081 -6.265143 3.272277
RightToeBase -0.707377 -0.000000 0.000000
1103
root -3.098497 32.993017 1.543674 3.270144 -0.807176 0.117561
Spine -7.989871 3.874388 -0.097427
Head -21.852510 -4.013912 24.836504
LeftShoulder -17.396621 14.285968 30.004633
LeftArm 16.594466 -24.207245 -23.459882
LeftForeArm 12.413135 -0.000000 9.557257
LeftHand -24.822777 0.000000 -17.465102
LeftHandThumb1 -26.253704 0.000000 33.147579
RightShoulder -24.954815 17.622671 -42.639872
RightArm -3.141515 4.573342 25.035899
RightForeArm -33.226353 0.000000 11.367897
RightHand -11.231188 -0.000000 16.304370
RightHandThumb1 -24.326973 -0.000000 -32.862282
LeftUpLeg 1.338004 -1.245488 -0.052021
LeftLeg -1.521024 -0.000000 0.000000
LeftFoot -10.864712 6.752318 -21.567385
LeftToeBase 6.959976 -0.000000 -0.000000
RightUpLeg 0.790177 -3.431737 0.469206
RightLeg 1.978382 -0.000000 -0.000000
RightFoot -9.958328 -6.147600 3.343906
RightToeBase -0.797876 -0.000000 0.000000
1104
root -3.076188 32.992890 1.540334 3.241380 -0.528204 0.154037
Spine -8.132845 3.690801 0.030170
Head -21.363764 -4.634028 24.483911
LeftShoulder -17.163192 14.250143 29.964376
LeftArm 16.929168 -23.838325 -23.462226
LeftForeArm 12.230036 -0.000000 9.650410
LeftHand -24.777928 -0.000000 -17.433907
LeftHandThumb1 -26.253704 0.000000 33.147579
RightShoulder -24.904489 17.602481 -42.675952
RightArm -2.845129 4.361978 24.754283
RightForeArm -33.240657 -0.000000 11.593075
RightHand -11.296692 -0.000000 15.769274
RightHandThumb1 -24.326973 -0.000000 -32.862282
LeftUpLeg 1.335329 -1.469378 -0.109683
LeftLeg -1.515622 -0.000000 0.000000
LeftFoot -10.882550 6.726378 -21.634356
LeftToeBase 6.862164 -0.000000 -0.000000
RightUpLeg 0.853139 -3.708741 0.397076
RightLeg 1.955959 -0.000000 -0.000000
RightFoot -9.996113 -6.110989 3.402900
RightToeBase -0.893704 -0.000000 0.000000
1105
root -3.057429 32.992818 1.536024 3.225820 -0.297239 0.191412
Spine -8.294082 3.555961 0.145178
Head -20.806950 -4.993234 23.900456
LeftShoulder -16.984407 14.283947 29.899025
LeftArm 17.388339 -23.795392 -23.540721
LeftForeArm 12.410316 -0.000000 9.755515
LeftHand -24.745944 0.000000 -17.435260
LeftHandThumb1 -26.253704 0.000000 33.147579
RightShoulder -24.846043 17.620983 -42.756545
RightArm -2.564222 4.153888 24.446421
RightForeArm -33.555012 -0.000000 11.773413
RightHand -11.383828 -0.000000 15.836721
RightHandThumb1 -24.326973 -0.000000 -32.862282
LeftUpLeg 1.331924 -1.691214 -0.162386
LeftLeg -1.530367 -0.000000 0.000000
LeftFoot -10.874671 6.726045 -21.709167
LeftToeBase 6.624013 -0.000000 -0.000000
RightUpLeg 0.882709 -3.825020 0.338483
RightLeg 1.960358 -0.000000 -0.000000
RightFoot -10.040740 -6.178091 3.434423
RightToeBase -0.916771 -0.000000 0.000000
1106
root -3.036833 32.992996 1.529391 3.213335 -0.098569 0.253160
Spine -8.436801 3.488917 0.227789
Head -20.265586 -5.206829 23.126965
LeftShoulder -16.753838 14.422459 29.777957
LeftArm 17.828573 -23.863178 -23.532197
LeftForeArm 12.470563 -0.000000 9.870850
LeftHand -24.872105 -0.000000 -17.292568
LeftHandThumb1 -26.253704 0.000000 33.147579
RightShoulder -24.809773 17.493509 -42.807885
RightArm -2.239906 3.906720 24.165570
RightForeArm -33.190471 0.000000 11.837632
RightHand -11.262324 0.000000 15.298935
RightHandThumb1 -24.326973 -0.000000 -32.862282
LeftUpLeg 1.331227 -1.952637 -0.247610
LeftLeg -1.544120 -0.000000 0.000000
LeftFoot -10.937404 6.842354 -21.766924
LeftToeBase 6.488662 -0.000000 -0.000000
RightUpLeg 0.881123 -3.820413 0.257324
RightLeg 2.008527 -0.000000 -0.000000
RightFoot -10.095274 -6.351001 3.345120
RightToeBase -0.846618 -0.000000 0.000000
